<?xml version="1.0" encoding="UTF-8"?>
<svg width="35px" height="60px" viewBox="0 0 35 60" version="1.1" xmlns="http://www.w3.org/2000/svg" xmlns:xlink="http://www.w3.org/1999/xlink">
    <!-- Generator: Sketch 52.5 (67469) - http://www.bohemiancoding.com/sketch -->
    <title>Group 15</title>
    <desc>Created with Sketch.</desc>
    <g id="Page-1" stroke="none" stroke-width="1" fill="none" fill-rule="evenodd">
        <g id="Group-15">
            <path d="M4.27849057,59.8992453 L29.9513208,59.8992453 L29.9513208,47.0637736 L4.27849057,47.0637736 L4.27849057,59.8992453 Z M8.55773585,55.6203774 L25.6728302,55.6203774 L25.6728302,51.3422642 L8.55773585,51.3422642 L8.55773585,55.6203774 Z" id="Fill-1" fill="#EC1D24"></path>
            <polygon id="Fill-2" fill="#EC1D24" points="0 47.0637736 4.27849057 47.0637736 4.27849057 34.2283019 0 34.2283019"></polygon>
            <polygon id="Fill-3" fill="#EC1D24" points="8.55766038 21.3932075 4.27841509 21.3932075 4.27841509 34.2286792 17.1153962 34.2286792 17.1153962 29.9501887 8.55766038 29.9501887"></polygon>
            <polygon id="Fill-4" fill="#EC1D24" points="29.9513208 47.0633962 34.230566 47.0633962 34.230566 29.9498113 29.9513208 29.9498113"></polygon>
            <polygon id="Fill-5" fill="#EC1D24" points="25.6729057 21.3932075 25.6729057 25.6716981 17.1151698 25.6716981 17.1151698 29.9501887 29.9513962 29.9501887 29.9513962 21.3932075"></polygon>
            <polygon id="Fill-6" fill="#EC1D24" points="25.6729057 17.1147547 19.2547925 17.1147547 19.2547925 14.9755094 17.1151698 14.9755094 17.1151698 17.1147547 8.55781132 17.1147547 8.55781132 21.3932453 25.6729057 21.3932453"></polygon>
            <polygon id="Fill-7" fill="#EC1D24" points="21.3935849 12.8358491 25.6728302 12.8358491 25.6728302 8.55735849 21.3935849 8.55735849"></polygon>
            <polygon id="Fill-8" fill="#EC1D24" points="19.254717 14.9754717 21.3935849 14.9754717 21.3935849 12.8358491 19.254717 12.8358491"></polygon>
            <polygon id="Fill-9" fill="#231F20" points="8.55773585 42.785283 12.8362264 42.785283 12.8362264 38.5067925 8.55773585 38.5067925"></polygon>
            <polygon id="Fill-10" fill="#231F20" points="19.2548679 36.3685283 19.2548679 42.7858868 25.6729811 42.7855094 25.6729811 36.3673962"></polygon>
            <polygon id="Fill-11" fill="#231F20" points="27.8124528 12.8358491 29.9513208 12.8358491 29.9513208 6.41773585 27.8124528 6.41773585"></polygon>
            <polygon id="Fill-12" fill="#231F20" points="21.3939623 2.13962264 29.9513208 2.13962264 29.9513208 0 21.3939623 0"></polygon>
            <polygon id="Fill-13" fill="#231F20" points="29.9513208 2.13962264 29.9513208 4.27849057 32.0909434 4.27849057 32.0909434 12.8362264 34.230566 12.8362264 34.230566 4.27811321 32.0909434 4.27811321 32.0909434 2.13962264"></polygon>
            <polygon id="Fill-14" fill="#231F20" points="21.3935849 6.41773585 27.8124528 6.41773585 27.8124528 4.27811321 21.3935849 4.27811321"></polygon>
        </g>
    </g>
</svg>